<svg xmlns="http://www.w3.org/2000/svg" version="1.1" xmlns:xlink="http://www.w3.org/1999/xlink" xmlns:svgjs="http://svgjs.dev/svgjs" width="1000" height="202" viewBox="0 0 1000 202"><g transform="matrix(1,0,0,1,-0.6060588587735083,0.5451460691181182)"><svg viewBox="0 0 396 80" data-background-color="#8abcd7" preserveAspectRatio="xMidYMid meet" height="202" width="1000" xmlns="http://www.w3.org/2000/svg" xmlns:xlink="http://www.w3.org/1999/xlink"><defs></defs><g id="tight-bounds" transform="matrix(1,0,0,1,0.239999536144353,-0.21589940121936024)"><svg viewBox="0 0 395.52 80.43179883453342" height="80.43179883453342" width="395.52"><g><svg viewBox="0 0 519.1130043478191 105.56531335480902" height="80.43179883453342" width="395.52"><g transform="matrix(1,0,0,1,123.59300434781915,14.58970683847216)"><svg viewBox="0 0 395.52 76.3858996778647" height="76.3858996778647" width="395.52"><g><svg viewBox="0 0 395.52 76.3858996778647" height="76.3858996778647" width="395.52"><g><svg viewBox="0 0 395.52 76.3858996778647" height="76.3858996778647" width="395.52"><g transform="matrix(1,0,0,1,0,0)"><svg width="395.52" viewBox="3 -30.3700008392334 159.13999938964844 30.740001678466797" height="76.3858996778647" data-palette-color="#ffffff"><path d="M5.62 0.07Q3 0.07 3-1.29L3-1.29 3-28.66Q3-29.57 3.42-29.97 3.83-30.37 4.74-30.37L4.74-30.37 19.24-30.37Q19.92-30.37 20.23-29.86 20.53-29.35 20.53-28.2L20.53-28.2 20.53-26.88Q20.53-25.73 20.23-25.22 19.92-24.71 19.24-24.71L19.24-24.71 9.69-24.71 9.69-18.36 18.92-18.36Q19.6-18.36 19.92-17.85 20.24-17.33 20.24-16.21L20.24-16.21 20.24-14.87Q20.24-13.72 19.92-13.2 19.6-12.67 18.92-12.67L18.92-12.67 9.69-12.67 9.69-1.29Q9.69 0.07 7.08 0.07L7.08 0.07 5.62 0.07ZM30.08 0.37Q26.76 0.37 25.21-1.38 23.65-3.13 23.65-6.01L23.65-6.01Q23.65-8.18 24.56-9.92 25.46-11.67 28.22-12.87 30.98-14.06 36.11-14.06L36.11-14.06 36.11-15.5Q36.11-16.77 35.3-17.38 34.49-17.99 32.74-17.99L32.74-17.99Q31.27-17.99 30.22-17.69 29.17-17.38 27.95-16.87L27.95-16.87Q27.32-16.58 27.17-16.58L27.17-16.58Q26.73-16.58 26.21-17.24 25.68-17.9 25.29-18.75 24.9-19.6 24.9-20.04L24.9-20.04Q24.9-20.8 25.99-21.5 27.07-22.19 28.98-22.62 30.88-23.05 33.2-23.05L33.2-23.05Q38.08-23.05 40.31-21.11 42.53-19.17 42.53-15.8L42.53-15.8 42.53-7.67Q42.53-5.64 42.64-4.52 42.75-3.39 42.94-2.29L42.94-2.29Q43.06-1.64 43.06-1.37L43.06-1.37Q43.06-0.88 42.15-0.56 41.23-0.24 40.06-0.1 38.89 0.05 38.18 0.05L38.18 0.05Q37.42 0.05 37.09-0.6 36.77-1.25 36.57-2.37L36.57-2.37Q36.55-2.51 36.52-2.66 36.5-2.81 36.45-2.95L36.45-2.95Q36.2-2.49 35.41-1.71 34.62-0.93 33.25-0.28 31.88 0.37 30.08 0.37L30.08 0.37ZM32.2-4.74Q33.42-4.74 34.49-5.51 35.57-6.27 36.11-7.47L36.11-7.47 36.11-9.86Q30.03-9.86 30.03-6.67L30.03-6.67Q30.03-5.81 30.6-5.27 31.17-4.74 32.2-4.74L32.2-4.74ZM58.22 0.37Q52.68 0.37 50-2.5 47.31-5.37 47.31-11.21L47.31-11.21Q47.31-17.09 50.02-20.07 52.73-23.05 58.47-23.05L58.47-23.05Q60.1-23.05 61.77-22.69 63.45-22.34 64.56-21.67 65.67-21 65.67-20.04L65.67-20.04Q65.67-19.65 65.24-18.82 64.81-17.99 64.27-17.35 63.72-16.7 63.35-16.7L63.35-16.7Q63.18-16.7 62.59-17.04L62.59-17.04Q61.66-17.48 60.83-17.74 60-17.99 58.81-17.99L58.81-17.99Q56.25-17.99 55.07-16.37 53.9-14.75 53.9-11.38L53.9-11.38Q53.9-7.98 55.01-6.36 56.12-4.74 58.56-4.74L58.56-4.74Q59.91-4.74 60.91-5.02 61.91-5.3 62.81-5.74L62.81-5.74Q62.98-5.81 63.23-5.91 63.47-6.01 63.59-6.01L63.59-6.01Q64.03-6.01 64.56-5.38 65.08-4.76 65.46-3.96 65.84-3.15 65.84-2.71L65.84-2.71Q65.84-1.59 64.37-0.9 62.91-0.22 61.1 0.07 59.3 0.37 58.22 0.37L58.22 0.37ZM76.21 0.37Q73.11 0.37 71.49-1.38 69.87-3.13 69.87-6.69L69.87-6.69 69.87-17.63 69.18-17.63Q68.5-17.63 68.19-18.14 67.89-18.65 67.89-19.8L67.89-19.8 67.89-20.53Q67.89-21.68 68.19-22.19 68.5-22.71 69.18-22.71L69.18-22.71 69.87-22.71 70.43-26.83Q70.62-28.2 72.77-28.2L72.77-28.2 74.14-28.2Q75.26-28.2 75.79-27.86 76.31-27.51 76.31-26.83L76.31-26.83 76.31-22.71 78.43-22.71Q79.12-22.71 79.42-22.19 79.73-21.68 79.73-20.53L79.73-20.53 79.73-19.8Q79.73-18.65 79.42-18.14 79.12-17.63 78.43-17.63L78.43-17.63 76.31-17.63 76.31-6.62Q76.31-5.62 76.66-5.18 77.02-4.74 77.85-4.74L77.85-4.74Q78.09-4.74 78.51-4.82 78.92-4.91 79.02-4.91L79.02-4.91Q79.41-4.91 79.72-4.26 80.02-3.61 80.2-2.83 80.39-2.05 80.39-1.78L80.39-1.78Q80.39 0.37 76.21 0.37L76.21 0.37ZM90.35 0.37Q87.07 0.37 85.51-1.35 83.95-3.08 83.95-6.69L83.95-6.69 83.95-21.41Q83.95-22.09 84.58-22.44 85.22-22.78 86.56-22.78L86.56-22.78 87.76-22.78Q89.1-22.78 89.74-22.44 90.37-22.09 90.37-21.41L90.37-21.41 90.37-7.67Q90.37-6.32 90.98-5.64 91.59-4.96 92.98-4.96L92.98-4.96Q94.18-4.96 95.07-5.73 95.96-6.49 96.45-7.47L96.45-7.47 96.45-21.41Q96.45-22.09 97.08-22.44 97.72-22.78 99.06-22.78L99.06-22.78 100.26-22.78Q101.6-22.78 102.24-22.44 102.87-22.09 102.87-21.41L102.87-21.41 102.87-7.67Q102.87-5.62 102.98-4.46 103.09-3.3 103.26-2.29L103.26-2.29Q103.38-1.64 103.38-1.37L103.38-1.37Q103.38-0.88 102.48-0.56 101.58-0.24 100.42-0.1 99.26 0.05 98.55 0.05L98.55 0.05Q97.77 0.05 97.44-0.57 97.11-1.2 96.91-2.34L96.91-2.34 96.79-2.95Q95.77-1.56 94.05-0.6 92.32 0.37 90.35 0.37L90.35 0.37ZM110.85 0.07Q108.26 0.07 108.26-1.29L108.26-1.29 108.26-15.06Q108.26-18.19 107.85-20.26L107.85-20.26Q107.73-20.92 107.73-21.19L107.73-21.19Q107.73-21.68 108.64-21.98 109.56-22.29 110.72-22.44 111.88-22.58 112.59-22.58L112.59-22.58Q113.34-22.58 113.65-22.02 113.95-21.46 114.2-20.39L114.2-20.39 114.34-19.75Q115.17-21.26 116.26-22.16 117.35-23.05 119.05-23.05L119.05-23.05Q120.47-23.05 121.01-22.33 121.55-21.61 121.55-20.7L121.55-20.7Q121.55-20.21 121.37-19.32 121.2-18.43 120.89-17.75 120.57-17.07 120.18-17.07L120.18-17.07Q119.91-17.07 119.37-17.21L119.37-17.21Q118.64-17.41 118.13-17.41L118.13-17.41Q116.93-17.41 116.04-16.74 115.15-16.06 114.68-15.23L114.68-15.23 114.68-1.29Q114.68 0.07 112.05 0.07L112.05 0.07 110.85 0.07ZM129.67 0.37Q126.35 0.37 124.8-1.38 123.25-3.13 123.25-6.01L123.25-6.01Q123.25-8.18 124.15-9.92 125.06-11.67 127.82-12.87 130.58-14.06 135.7-14.06L135.7-14.06 135.7-15.5Q135.7-16.77 134.9-17.38 134.09-17.99 132.33-17.99L132.33-17.99Q130.87-17.99 129.82-17.69 128.77-17.38 127.55-16.87L127.55-16.87Q126.91-16.58 126.77-16.58L126.77-16.58Q126.33-16.58 125.8-17.24 125.28-17.9 124.89-18.75 124.5-19.6 124.5-20.04L124.5-20.04Q124.5-20.8 125.58-21.5 126.67-22.19 128.57-22.62 130.48-23.05 132.8-23.05L132.8-23.05Q137.68-23.05 139.9-21.11 142.12-19.17 142.12-15.8L142.12-15.8 142.12-7.67Q142.12-5.64 142.23-4.52 142.34-3.39 142.54-2.29L142.54-2.29Q142.66-1.64 142.66-1.37L142.66-1.37Q142.66-0.88 141.75-0.56 140.83-0.24 139.66-0.1 138.49 0.05 137.78 0.05L137.78 0.05Q137.02 0.05 136.69-0.6 136.36-1.25 136.17-2.37L136.17-2.37Q136.14-2.51 136.12-2.66 136.09-2.81 136.04-2.95L136.04-2.95Q135.8-2.49 135.01-1.71 134.21-0.93 132.85-0.28 131.48 0.37 129.67 0.37L129.67 0.37ZM131.8-4.74Q133.02-4.74 134.09-5.51 135.17-6.27 135.7-7.47L135.7-7.47 135.7-9.86Q129.62-9.86 129.62-6.67L129.62-6.67Q129.62-5.81 130.2-5.27 130.77-4.74 131.8-4.74L131.8-4.74ZM153.62 0.37Q151.94 0.37 150.28 0 148.62-0.37 147.53-1.05 146.44-1.73 146.44-2.61L146.44-2.61Q146.44-3.15 146.83-3.96 147.22-4.76 147.77-5.36 148.32-5.96 148.74-5.96L148.74-5.96Q148.96-5.96 149.69-5.62L149.69-5.62Q150.54-5.22 151.33-4.98 152.11-4.74 153.11-4.74L153.11-4.74Q154.35-4.74 154.99-5.2 155.62-5.66 155.62-6.57L155.62-6.57Q155.62-7.25 155.24-7.7 154.87-8.15 154.28-8.45 153.69-8.74 152.62-9.16L152.62-9.16 151.91-9.42Q150.52-9.96 149.47-10.64 148.42-11.33 147.69-12.63 146.96-13.94 146.96-15.94L146.96-15.94Q146.96-18.16 147.92-19.76 148.88-21.36 150.67-22.2 152.45-23.05 154.87-23.05L154.87-23.05Q156.26-23.05 157.77-22.78 159.28-22.51 160.32-21.95 161.36-21.39 161.36-20.53L161.36-20.53Q161.36-20.04 161.05-19.21 160.75-18.38 160.31-17.75 159.87-17.11 159.48-17.11L159.48-17.11Q159.36-17.11 158.8-17.33L158.8-17.33Q158.04-17.65 157.34-17.83 156.65-18.02 155.74-18.02L155.74-18.02Q153.45-18.02 153.45-16.5L153.45-16.5Q153.45-15.82 153.88-15.33 154.3-14.84 154.94-14.53 155.57-14.21 156.72-13.77L156.72-13.77Q158.04-13.23 158.36-13.09L158.36-13.09Q160.07-12.23 161.1-10.83 162.14-9.42 162.14-7.08L162.14-7.08Q162.14-4.86 161.14-3.17 160.14-1.49 158.21-0.56 156.28 0.37 153.62 0.37L153.62 0.37Z" opacity="1" transform="matrix(1,0,0,1,0,0)" fill="#ffffff" class="undefined-text-0" data-fill-palette-color="primary" id="text-0"></path></svg></g></svg></g></svg></g></svg></g><g><svg viewBox="0 0 105.56012669546756 105.56531335480902" height="105.56531335480902" width="105.56012669546756"><g><svg xmlns="http://www.w3.org/2000/svg" xmlns:xlink="http://www.w3.org/1999/xlink" version="1.1" x="0" y="0" viewBox="0.3583327531814575 0.3587183356285095 89.28327178955078 89.28765869140625" enable-background="new 0 0 90 90" xml:space="preserve" height="105.56531335480902" width="105.56012669546756" class="icon-icon-0" data-fill-palette-color="accent" id="icon-0"><polygon points="57.928,58.169 57.875,76.027 45.397,63.548 45.397,45.639 " fill="#ffffff" data-fill-palette-color="accent"></polygon><polygon points="76.027,57.875 58.475,57.927 45.826,45.279 63.432,45.279 " fill="#ffffff" data-fill-palette-color="accent"></polygon><polygon points="76.027,32.125 63.432,44.721 45.707,44.721 58.355,32.073 " fill="#ffffff" data-fill-palette-color="accent"></polygon><polygon points="44.838,45.59 44.838,63.314 32.125,76.027 32.074,58.355 " fill="#ffffff" data-fill-palette-color="accent"></polygon><polygon points="57.928,31.712 45.397,44.243 45.397,26.452 57.875,13.974 " fill="#ffffff" data-fill-palette-color="accent"></polygon><polygon points="44.838,26.687 44.838,44.291 32.074,31.526 32.125,13.974 " fill="#ffffff" data-fill-palette-color="accent"></polygon><polygon points="44.479,44.721 26.569,44.721 13.974,32.125 31.832,32.073 " fill="#ffffff" data-fill-palette-color="accent"></polygon><polygon points="44.36,45.279 31.712,57.927 13.974,57.875 26.569,45.279 " fill="#ffffff" data-fill-palette-color="accent"></polygon><rect x="58.48" y="58.48" width="18.049" height="18.049" fill="#ffffff" data-fill-palette-color="accent"></rect><polygon points="76.527,13.474 76.527,31.516 58.914,31.516 58.912,31.518 58.484,31.516 58.484,13.474 " fill="#ffffff" data-fill-palette-color="accent"></polygon><polygon points="31.518,30.971 31.516,31.516 13.474,31.516 13.474,13.474 31.516,13.474 31.516,30.968 " fill="#ffffff" data-fill-palette-color="accent"></polygon><rect x="13.471" y="58.48" width="18.05" height="18.049" fill="#ffffff" data-fill-palette-color="accent"></rect><rect x="67.864" y="35.981" transform="matrix(0.7071 -0.7071 0.7071 0.7071 -9.3022 67.5465)" width="18.042" height="18.042" fill="#ffffff" data-fill-palette-color="accent"></rect><rect x="35.979" y="4.094" transform="matrix(0.7071 -0.7071 0.7071 0.7071 3.9068 35.6621)" width="18.042" height="18.042" fill="#ffffff" data-fill-palette-color="accent"></rect><rect x="4.095" y="35.98" transform="matrix(0.7071 -0.7071 0.7071 0.7071 -27.9787 22.4536)" width="18.041" height="18.041" fill="#ffffff" data-fill-palette-color="accent"></rect><rect x="35.98" y="67.865" transform="matrix(0.7071 -0.7071 0.7071 0.7071 -41.1877 54.3437)" width="18.04" height="18.041" fill="#ffffff" data-fill-palette-color="accent"></rect></svg></g></svg></g></svg></g></svg><rect width="395.52" height="80.43179883453342" fill="none" stroke="none" visibility="hidden"></rect></g></svg></g></svg>